<?xml version="1.0" encoding="UTF-8"?>
<svg xmlns="http://www.w3.org/2000/svg" viewBox="0 0 64 64" width="64" height="64">
  <defs>
    <radialGradient id="btcCoin" cx="35%" cy="30%" r="75%">
      <stop offset="0%" stop-color="#ffb84d"/>
      <stop offset="55%" stop-color="#f7931a"/>
      <stop offset="100%" stop-color="#b86b0c"/>
    </radialGradient>
    <linearGradient id="btcRim" x1="0%" y1="0%" x2="0%" y2="100%">
      <stop offset="0%" stop-color="#ffd089" stop-opacity="0.9"/>
      <stop offset="100%" stop-color="#7a4708" stop-opacity="0.9"/>
    </linearGradient>
  </defs>
  <circle cx="32" cy="32" r="30" fill="url(#btcCoin)" stroke="url(#btcRim)" stroke-width="1.5"/>
  <circle cx="32" cy="32" r="27" fill="none" stroke="#fff" stroke-opacity="0.18" stroke-width="0.8"/>
  <g transform="translate(32 32)" fill="#ffffff">
    <path d="M -7.5 -14 L -3.5 -14 L -3.5 -10.5 L -1 -10.5 L -1 -14 L 3 -14 L 3 -10.5 C 8.5 -10.2 11.5 -7.5 11.5 -3.2 C 11.5 -0.4 10 1.6 7.5 2.6 C 11 3.6 13 6 13 9.2 C 13 13.8 9.5 16.6 3 16.9 L 3 20.5 L -1 20.5 L -1 17 L -3.5 17 L -3.5 20.5 L -7.5 20.5 L -7.5 17 L -11 17 L -11 13 L -8.5 13 C -7.7 13 -7.3 12.6 -7.3 11.8 L -7.3 -7.8 C -7.3 -8.6 -7.7 -9 -8.5 -9 L -11 -9 L -11 -14 L -7.5 -14 Z M -2.5 -6.5 L -2.5 0.5 L 2 0.5 C 5.2 0.5 7 -0.7 7 -3 C 7 -5.3 5.2 -6.5 2 -6.5 L -2.5 -6.5 Z M -2.5 5 L -2.5 12.8 L 3.2 12.8 C 6.6 12.8 8.5 11.4 8.5 8.9 C 8.5 6.4 6.6 5 3.2 5 L -2.5 5 Z" />
  </g>
</svg>
